<?xml version="1.0" encoding="utf-8"?>
<!-- Generator: Adobe Illustrator 21.0.2, SVG Export Plug-In . SVG Version: 6.00 Build 0)  -->
<svg version="1.1" id="Livello_1" xmlns="http://www.w3.org/2000/svg" xmlns:xlink="http://www.w3.org/1999/xlink" x="0px" y="0px"
	 width="371.6px" height="328.6px" viewBox="0 0 371.6 328.6" style="enable-background:new 0 0 371.6 328.6;" xml:space="preserve"
	>
<g>
	<g>
		<g id="XMLID_1_">
			<g>
				<path style="fill:#f6f9fc;" d="M371.6,88.6c0-4.6,0-9.8-3.9-13.9c-2.6-2.8-5.9-3.8-9-4.2c0-1.6,0-3.2,0-4.7l0-1.4
					c0-3-0.1-7.9-3.5-11.9c-3.6-4.2-8.5-4.9-11.5-5.3l-7.3-1c-28.4-4-57.7-8.1-86.6-12c0.1-6.6,0.1-13.1-0.2-19.4
					c-0.2-4.3-2.4-10-7.2-13c-1.8-1.1-3.9-1.7-6.1-1.7c-2.8,0-5.8,0.9-9,2.8c-1.5,0.9-2.8,1.9-3.9,2.8c-1.2-0.9-2.7-2-4.5-2.9
					c-2-1-5.2-2.3-8.8-2.3c-1.7,0-3.3,0.3-4.8,0.9c-7.5,2.9-8.1,11.9-8.2,13.7c-0.2,5.3-0.1,10.7-0.1,15.8c0,1.8,0,3.6,0,5.4
					c0,1.6,0,3.4,0,4.6c-1.1,0.5-2.6,1.1-4,1.7l-0.1,0c-0.4,0.2-1.2,0.5-2.1,1c-2.3,1.4-4.2,2-5.6,2c-0.6,0-1.6-0.1-3-1.2
					c-2.2-1.6-4.4-2.3-6.1-2.8c-0.3-0.1-0.6-0.2-0.9-0.3c-14.1-5.2-28.5-7.8-42.8-7.8c-2.6,0-5.3,0.1-7.9,0.3
					c-7.7,0.5-15.3,1.6-22.6,2.7c-2,0.3-3.9,0.6-5.9,0.9c-9.7,1.4-19.6,2.8-29.1,4.2c-13,1.9-26.4,3.8-39.6,5.7
					c-9,1.3-14.5,7.7-14.3,16.8c0,1.9,0,3.9,0,6c0,0.1,0,0.2,0,0.3C4.3,71.6,0.7,78,0.2,84C0,85.9,0,87.8,0,89.4v0.4
					c0,30.6,0,61.1,0,91.7v17.7v18.6c0,30.5,0,60.9,0,91.4c0,0.3,0,0.6,0,0.9c0,1.7,0,3.9,0.4,6.2c1.2,7.3,7,12.2,14.3,12.2
					c0.4,0,0.8,0,1.2,0c3.8-0.3,7.5-0.5,11.3-0.8c5-0.3,10.1-0.7,15.1-1.1c9.8-0.7,19.6-1.5,29.5-2.2c7.3-0.5,14.5-1.1,21.8-1.6
					c4.3-0.3,8.6-0.6,12.9-0.9c6.1-0.4,12.3-0.9,18.4-1.3c5.2-0.4,10.5-0.8,15.6-1.2c10.3-0.9,21-1.7,31.5-2.3c4-0.2,8-0.3,12.3-0.3
					c14,0,28.3,1.1,42.2,2.1c5.6,0.4,11.4,0.9,17.1,1.2c12.2,0.8,24.7,1.8,36.7,2.8c8,0.7,16.2,1.3,24.4,1.9
					c8.5,0.6,17.1,1.2,25.4,1.7c7.4,0.5,15,1,22.4,1.5c1.3,0.1,2.7,0.2,4.1,0.2c5.9,0,10.2-2.1,12.8-6.3c2.1-3.5,2.3-7.2,2.3-11.4
					C371.6,238.6,371.6,164,371.6,88.6z M361.6,310.5c0,6.3-0.5,7.7-5,7.7c-0.9,0-2.1-0.1-3.4-0.2c-15.9-1.1-31.9-2.1-47.8-3.2
					c-20.4-1.5-40.8-3.4-61.2-4.7c-20-1.3-40-3.4-60-3.4c-4.3,0-8.5,0.1-12.8,0.3c-15.8,0.8-31.5,2.3-47.3,3.5
					c-10.4,0.8-20.9,1.5-31.3,2.3c-17.1,1.2-34.2,2.5-51.2,3.8c-8.8,0.6-17.6,1.2-26.4,1.9c-0.2,0-0.4,0-0.5,0c-2.5,0-4-1.4-4.4-3.8
					c-0.3-1.8-0.2-3.6-0.2-5.5c0-36.7,0-73.3,0-110c0-36.5,0-73,0-109.5c0-1.7,0-3.3,0.1-5c0.3-3.5,2.5-4.6,5.8-4.8
					c7.1-0.2,7-0.3,7.1-7.4c0-3,0.1-6,0-9c-0.1-4,1.6-6,5.7-6.6c22.9-3.2,45.8-6.6,68.7-9.9c9.2-1.3,18.4-2.9,27.7-3.5
					c2.4-0.2,4.8-0.2,7.2-0.2c13.4,0,26.6,2.5,39.3,7.2c1.6,0.6,3.3,1,4.6,1.9c3,2.2,5.9,3.1,8.9,3.1c3.6,0,7.1-1.3,10.6-3.4
					c0.3-0.2,0.6-0.3,0.9-0.4c10.2-4.2,10.2-4.2,10.2-15.5c0-7-0.1-14,0.1-21c0-1.7,0.7-4.2,1.8-4.7c0.4-0.1,0.8-0.2,1.2-0.2
					c1.4,0,3,0.6,4.2,1.2c3.2,1.6,6.2,5.2,9.3,5.2c0,0,0,0,0.1,0c2.8,0,5.7-3.6,8.6-5.3c1.2-0.7,2.9-1.5,4-1.5c0.3,0,0.6,0,0.8,0.2
					c1.4,0.9,2.5,3.1,2.5,4.9c0.3,7.5,0.3,15,0.1,22.5c-0.1,3.9,1.1,5.4,5.2,6c32.5,4.4,64.9,9,97.4,13.5c5.6,0.8,6.3,1.7,6.4,7.4
					c0.1,3.5,0.2,7,0,10.5c-0.2,3.6,1.2,5.1,4.9,5.2c7.7,0.2,8.1,0.8,8.1,8.4C361.6,162.6,361.6,236.5,361.6,310.5z"/>
				<path style="fill:#f6f9fc;" d="M354.5,89.4c0.5,1.7,0.3,3.6,0.3,5.5c0,34.8,0,69.6,0,104.5s0,69.6,0,104.5
					c0,6.1-0.2,7.5-4.2,7.5c-0.9,0-2-0.1-3.3-0.2c-20.4-1.5-40.8-3.2-61.2-4.7c-15.8-1.2-31.5-2.1-47.3-3.2
					c-9.5-0.6-18.9-1.4-28.4-2c-2.8-0.2-4.9-0.8-4.8-4.2c0-3,0-5.4,3.9-6.3c7.3-1.5,14.7-2.2,22-2.2c5.3,0,10.6,0.4,15.8,1.1
					c27.4,3.8,54.6,8.6,81.9,13c1.3,0.2,2.4,0.3,3.4,0.3c3.9,0,5-2,5.1-7.6c0-1.3,0-2.7,0-4c0-4.8,0-5.4,3.9-5.4c0.4,0,0.9,0,1.4,0
					c0.1,0,0.1,0,0.2,0c3.4,0,5.1-1.6,5.4-4.9c0.1-1.8,0.1-3.7,0.1-5.5c0-60.1,0-120.3,0-180.4c0-1.8-0.3-3.8,0.3-5.4
					c0.3-1.1,1.9-2.2,3-2.4c0,0,0.1,0,0.1,0C352.8,87.2,354.2,88.5,354.5,89.4z"/>
				<path style="fill:#A0A0A0;" d="M341.5,285.9c-3.9,0-3.9,0.6-3.9,5.4c0,1.3,0,2.7,0,4c-0.1,5.6-1.2,7.6-5.1,7.6
					c-1,0-2.1-0.1-3.4-0.3c-27.3-4.4-54.5-9.2-81.9-13c-5.2-0.7-10.5-1.1-15.8-1.1c-7.3,0-14.7,0.7-22,2.2c-3.9,0.8-3.9,3.3-3.9,6.3
					c0,3.5,2,4,4.8,4.2c9.5,0.6,18.9,1.3,28.4,2c15.8,1.1,31.5,2.1,47.3,3.2c20.4,1.5,40.8,3.2,61.2,4.7c1.3,0.1,2.4,0.2,3.3,0.2
					c4.1,0,4.2-1.4,4.2-7.5c0-34.8,0-69.6,0-104.5s0-69.6,0-104.5c0-1.8,0.2-3.8-0.3-5.5c-0.3-0.9-1.7-2.2-2.5-2.2c0,0-0.1,0-0.1,0
					c-1.1,0.2-2.6,1.3-3,2.4c-0.5,1.7-0.3,3.6-0.3,5.4c0,60.1,0,120.3,0,180.4c0,1.8,0,3.7-0.1,5.5c-0.2,3.3-2,4.9-5.4,4.9
					c-0.1,0-0.1,0-0.2,0C342.4,285.9,342,285.9,341.5,285.9z M361.6,88.6c0,74,0,147.9,0,221.9c0,6.3-0.5,7.7-5,7.7
					c-0.9,0-2.1-0.1-3.4-0.2c-15.9-1.1-31.9-2.1-47.8-3.2c-20.4-1.5-40.8-3.4-61.2-4.7c-20-1.3-39.9-3.4-60-3.4
					c-4.3,0-8.5,0.1-12.8,0.3c-15.8,0.8-31.5,2.4-47.3,3.5c-10.4,0.8-20.9,1.5-31.3,2.3c-17.1,1.2-34.2,2.5-51.2,3.8
					c-8.8,0.6-17.6,1.2-26.4,1.9c-0.2,0-0.4,0-0.5,0c-2.5,0-4-1.4-4.4-3.8c-0.3-1.8-0.2-3.6-0.2-5.5c0-36.7,0-73.3,0-110
					c0-36.5,0-73,0-109.5c0-1.7,0-3.3,0.1-5c0.3-3.5,2.5-4.6,5.8-4.8c7.1-0.2,7.1-0.3,7.1-7.4c0-3,0.1-6,0-9c-0.1-4,1.6-6,5.7-6.6
					c22.9-3.2,45.8-6.6,68.7-9.9c9.2-1.3,18.4-2.9,27.7-3.5c2.4-0.2,4.8-0.2,7.2-0.2c13.4,0,26.6,2.5,39.3,7.2
					c1.6,0.6,3.3,1,4.6,1.9c3,2.2,5.9,3.1,8.9,3.1c3.6,0,7.1-1.4,10.6-3.4c0.3-0.2,0.6-0.3,0.9-0.4c10.2-4.2,10.2-4.2,10.2-15.5
					c0-7-0.1-14,0.1-21c0-1.6,0.7-4.2,1.8-4.7c0.4-0.1,0.8-0.2,1.2-0.2c1.3,0,2.9,0.6,4.2,1.2c3.2,1.6,6.2,5.2,9.3,5.2
					c0,0,0,0,0.1,0c2.8,0,5.7-3.6,8.6-5.3c1.1-0.7,2.9-1.5,4-1.5c0.3,0,0.6,0.1,0.8,0.2c1.4,0.9,2.5,3.1,2.5,4.9
					c0.3,7.5,0.3,15,0.1,22.5c-0.1,3.9,1.1,5.4,5.2,6c32.5,4.3,64.9,8.9,97.4,13.5c5.6,0.8,6.3,1.7,6.4,7.4c0.1,3.5,0.2,7,0,10.5
					c-0.2,3.6,1.2,5.1,4.9,5.2C361.1,80.4,361.6,80.9,361.6,88.6z M341.8,272c0-67.3,0-134.6,0-201.9c0-5.9-0.4-6.3-6.4-7.2
					c-22.6-3.3-45.1-6.7-67.7-9.8c-9.3-1.3-18.8-2.9-28.1-2.9c-0.4,0-0.8,0-1.1,0c-14.5,0.2-28.7,3.2-42.2,9.3
					c-6.6,3-6.7,2.8-6.7,9.8c0,33.3,0,66.6,0,100c0,33.8,0,67.6,0,101.5c0,3.5,0.2,4.9,1.7,4.9c0.8,0,1.9-0.4,3.6-1.1
					c14.6-6,29.6-9.2,45.1-9.2c5.1,0,10.3,0.4,15.6,1.1c26.5,3.7,53,7.6,79.6,11.5c1.2,0.2,2.2,0.3,3.1,0.3
					C341.2,278.2,341.8,276.7,341.8,272z M330.7,292.5c1.1-4.7-0.2-7.8-3.9-8.7c-1.6-0.4-3.3-0.6-4.9-0.8
					c-19.9-2.9-39.9-5.4-59.8-8.7c-7.4-1.2-14.8-1.9-22.1-1.9c-9.2,0-18.3,1.1-27.3,3.5c-7,1.9-13.8,4.8-20.5,7.7
					c-1.1,0.5-1.4,2.8-2.1,4.3c0.9,0,1.9,0.3,2.9,0.3c0.4,0,0.8,0,1.2-0.2c11.8-4.3,23.9-6.4,36.5-6.4c0.6,0,1.2,0,1.8,0
					c7.9,0.6,16,0.8,23.8,2c22.9,3.5,45.6,7.5,68.5,11.2c1,0.2,2,0.4,3,0.4C329,295.2,330.1,294.6,330.7,292.5z M232.8,39.7
					c0-4.6,0.1-9.3,0-13.9c0-1.4-0.7-2.8-1.1-4.1c-1.3,0.5-2.9,0.8-3.9,1.6c-1.6,1.4-3.2,2.1-4.8,2.1c-1.6,0-3.2-0.8-4.9-2.4
					c-0.5-0.5-1.1-0.8-1.6-1.1c-0.7-0.4-1.2-0.6-1.6-0.6c-0.8,0-1.2,0.7-1.2,2.1c0,3.2,0,6.3,0,9.5c0,3.2,0,6.3,0,9.5
					c0,2.3,0.7,3.6,2.8,3.6c0.4,0,0.8,0,1.2-0.1c3.7-0.7,7.5-1.1,11.3-1.6C231.7,43.8,232.8,42.3,232.8,39.7z M196.1,299.9
					c0.9-0.1,1.6-2.2,2.4-3.5c-1.2-0.4-2.3-1.1-3.6-1.2c-0.1,0-0.1,0-0.2,0c-0.7,0-1.5,0.5-2.1,0.9c-2.3,1.6-4.5,2.4-6.8,2.4
					c-2.4,0-4.7-0.9-7.1-2.5c-0.5-0.4-1.2-0.6-1.8-0.8c-0.7-0.2-1.4-0.5-2.1-0.5c-0.8,0-1.5,0.4-1.8,1.9c-0.4,2.3,0.8,3.5,3.1,3.5
					c1.3,0,2.5,0,3.8,0c1.9,0,3.8,0,5.7,0c0,0,0,0,0-0.1c1.9,0,3.8,0.1,5.7,0.1C193,300.1,194.5,300.1,196.1,299.9z M182.1,67.9
					c0-3.2-0.5-5.7-3.9-7.2c-15-6.7-30.5-10.4-46.6-10.4c-4.7,0-9.5,0.3-14.3,1c-26.9,3.7-53.7,7.7-80.6,11.6
					c-6.8,1-6.9,1.1-6.9,8.2c0,33.2,0,66.3,0,99.5c0,33.8,0,67.6,0,101.5c0,4.8,0.6,6.2,3.6,6.2c0.7,0,1.6-0.1,2.6-0.2
					c24.2-3.5,48.4-7,72.6-10.5c8.1-1.2,16.2-2.2,24.3-2.2c6,0,11.9,0.5,17.9,1.9c9.1,2.1,17.9,5,26.8,7.9c0.9,0.3,1.7,0.5,2.4,0.5
					c1.4,0,2.1-0.9,2.1-3.2c0-1.5,0-3,0-4.5c0-43.6,0-87.3,0-130.9C182,113.8,182,90.8,182.1,67.9z M181.6,287.8
					c-0.4-1.3-0.5-2.9-1.4-3.8c-0.8-1-2.2-1.4-3.4-1.9c-14.5-6.6-29.7-9.5-47.4-10c-3.1,0.3-8.1,0.7-13,1.3
					c-15.5,2.1-31,4.4-46.4,6.6c-8.4,1.2-16.8,2.4-25.2,3.8c-3.6,0.6-4.7,3.4-3.9,8.2c0.4,2.5,1.7,3.1,3.2,3.1
					c0.8,0,1.6-0.1,2.4-0.3c20.7-3.4,41.4-6.9,62.1-10.2c10.6-1.7,21.2-2.9,31.8-2.9c12.7,0,25.3,1.7,37.7,6.4
					c0.2,0.1,0.5,0.1,0.8,0.1C179.7,288.3,180.7,287.9,181.6,287.8z M166,296.9c0-3.3-0.4-5.5-4.4-6.4c-7-1.5-14.1-2.1-21.2-2.1
					c-5.1,0-10.1,0.3-15.1,0.9c-19.7,2.4-39.1,6-58.7,9.1c-8.2,1.3-16.4,2.8-24.6,4.1c-1.1,0.2-2,0.3-2.9,0.3c-3.8,0-4.9-1.9-5-7.1
					c0-2-0.1-4,0-6c0.2-3-0.7-4.1-3.4-4.1c-0.3,0-0.6,0-1,0c-0.6,0-1.1,0.1-1.6,0.1c-3.9,0-4.8-1.6-5-6.3c-0.1-1.7,0-3.3,0-5
					c0-60,0-119.9-0.1-179.9c0-2.6,2-7.3-3-7.3c0,0-0.1,0-0.1,0c-4.6,0.1-2.9,4.5-2.9,7.1c-0.1,34.8-0.1,69.6-0.1,104.5
					c0,34.6,0,69.3,0,104c0,1.5,0,3,0,4.5c0,2.5,1.1,3.9,3.5,3.9c0.1,0,0.3,0,0.5,0c4-0.3,8-0.6,11.9-0.9
					c16.1-1.1,32.2-2.1,48.3-3.2c26.5-1.9,53.1-3.9,79.6-5.9C163.5,300.9,166,300.8,166,296.9z"/>
				<path style="fill:#f6f9fc;" d="M341.8,70.1c0,67.3,0,134.6,0,201.9c0,4.7-0.6,6.2-3.6,6.2c-0.8,0-1.8-0.1-3.1-0.3
					c-26.5-3.8-53-7.8-79.6-11.5c-5.2-0.7-10.4-1.1-15.6-1.1c-15.4,0-30.4,3.2-45.1,9.2c-1.7,0.7-2.8,1.1-3.6,1.1
					c-1.5,0-1.7-1.4-1.7-4.9c0-33.8,0-67.6,0-101.5c0-33.3,0-66.6,0-100c0-7,0.1-6.8,6.7-9.8c13.4-6.1,27.6-9.1,42.2-9.3
					c0.4,0,0.8,0,1.1,0c9.4,0,18.8,1.6,28.1,2.9c22.6,3.1,45.1,6.5,67.7,9.8C341.4,63.7,341.8,64.1,341.8,70.1z"/>
				<path style="fill:#f6f9fc;" d="M326.8,283.7c3.7,0.9,5,4.1,3.9,8.7c-0.5,2.2-1.7,2.7-3.1,2.7c-1,0-2-0.3-3-0.4
					c-22.8-3.7-45.6-7.7-68.5-11.2c-7.9-1.2-15.9-1.4-23.8-2c-0.6,0-1.2,0-1.8,0c-12.5,0-24.7,2.1-36.5,6.4
					c-0.4,0.1-0.7,0.2-1.2,0.2c-0.9,0-1.9-0.2-2.9-0.3c0.7-1.5,1-3.9,2.1-4.3c6.7-2.8,13.5-5.8,20.5-7.7c9-2.5,18.1-3.5,27.3-3.5
					c7.3,0,14.7,0.7,22.1,1.9c19.9,3.2,39.8,5.8,59.8,8.7C323.5,283.1,325.2,283.3,326.8,283.7z"/>
				<path style="fill:#f6f9fc;" d="M232.8,25.8c0.1,4.6,0,9.3,0,13.9c0,2.5-1.1,4-3.8,4.3c-3.8,0.4-7.6,0.9-11.3,1.6
					c-0.4,0.1-0.8,0.1-1.2,0.1c-2.1,0-2.8-1.3-2.8-3.6c0-3.1,0-6.3,0-9.5c0-3.2,0-6.3,0-9.5c0-1.4,0.4-2.1,1.2-2.1
					c0.4,0,1,0.2,1.6,0.6c0.6,0.4,1.2,0.7,1.6,1.1c1.6,1.6,3.2,2.4,4.9,2.4c1.5,0,3.1-0.7,4.8-2.1c1-0.9,2.6-1.1,3.9-1.6
					C232.1,23,232.7,24.4,232.8,25.8z"/>
				<path style="fill:#f6f9fc;" d="M185.9,298.5c2.3,0,4.5-0.8,6.8-2.4c0.6-0.4,1.4-0.9,2.1-0.9c0.1,0,0.1,0,0.2,0
					c1.2,0.2,2.4,0.8,3.6,1.2c-0.8,1.2-1.5,3.3-2.4,3.5c-1.6,0.2-3.1,0.2-4.7,0.2c-1.9,0-3.8-0.1-5.7-0.1c0,0,0,0,0,0.1
					c-1.9,0-3.8,0-5.7,0c-1.3,0-2.5,0-3.8,0c-2.3,0-3.5-1.2-3.1-3.5c0.3-1.4,0.9-1.9,1.8-1.9c0.6,0,1.4,0.2,2.1,0.5
					c0.6,0.2,1.3,0.4,1.8,0.8C181.2,297.7,183.5,298.5,185.9,298.5z"/>
				<path style="fill:#f6f9fc;" d="M178.2,60.7c3.4,1.5,3.9,4,3.9,7.2c-0.1,23,0,46,0,69c0,43.6,0,87.3,0,130.9c0,1.5,0,3,0,4.5
					c0,2.4-0.7,3.2-2.1,3.2c-0.6,0-1.4-0.2-2.4-0.5c-8.9-2.8-17.7-5.8-26.8-7.9c-5.9-1.4-11.9-1.9-17.9-1.9c-8.1,0-16.2,1-24.3,2.2
					C84.4,271,60.2,274.5,36,278c-1,0.1-1.9,0.2-2.6,0.2c-3,0-3.6-1.5-3.6-6.2c0-33.8,0-67.6,0-101.5c0-33.2,0-66.3,0-99.5
					c0-7.1,0.1-7.2,6.9-8.2c26.9-3.9,53.7-7.9,80.6-11.6c4.8-0.7,9.6-1,14.3-1C147.6,50.2,163.1,54,178.2,60.7z"/>
				<path style="fill:#f6f9fc;" d="M180.2,284c0.8,1,0.9,2.5,1.4,3.8c-0.9,0.1-1.9,0.5-2.8,0.5c-0.3,0-0.5,0-0.8-0.1
					c-12.4-4.7-25-6.4-37.7-6.4c-10.5,0-21.1,1.2-31.8,2.9c-20.7,3.3-41.4,6.8-62.1,10.2c-0.8,0.1-1.7,0.3-2.4,0.3
					c-1.5,0-2.8-0.6-3.2-3.1c-0.8-4.9,0.3-7.6,3.9-8.2c8.4-1.4,16.8-2.6,25.2-3.8c15.5-2.2,31-4.5,46.4-6.6c4.9-0.7,9.9-1,13-1.3
					c17.7,0.5,33,3.4,47.4,10C178,282.6,179.5,283,180.2,284z"/>
				<path style="fill:#f6f9fc;" d="M161.6,290.5c4,0.8,4.5,3,4.4,6.4c0,3.9-2.5,4-5.4,4.2c-26.5,1.9-53.1,3.9-79.6,5.9
					c-16.1,1.2-32.2,2.1-48.3,3.2c-4,0.3-8,0.6-11.9,0.9c-0.2,0-0.3,0-0.5,0c-2.4,0-3.5-1.4-3.5-3.9c0-1.5,0-3,0-4.5
					c0-34.6,0-69.3,0-104c0-34.8,0-69.6,0.1-104.5c0-2.6-1.7-7.1,2.9-7.1c0,0,0.1,0,0.1,0c5,0,3,4.7,3,7.3c0.1,60,0.1,120,0.1,179.9
					c0,1.7,0,3.3,0,5c0.2,4.7,1.2,6.3,5,6.3c0.5,0,1,0,1.6-0.1c0.3,0,0.7,0,1,0c2.7,0,3.6,1.2,3.4,4.1c-0.1,2-0.1,4,0,6
					c0.1,5.2,1.3,7.1,5,7.1c0.8,0,1.8-0.1,2.9-0.3c8.2-1.3,16.4-2.8,24.6-4.1c19.6-3.1,39-6.8,58.7-9.1c5-0.6,10.1-0.9,15.1-0.9
					C147.5,288.5,154.6,289.1,161.6,290.5z"/>
			</g>
		</g>
	</g>
	<path style="fill:#A0A0A0;" d="M319.7,248.6c-17.7-2.5-34-4.9-50.3-7.1c-9.2-1.3-18.5-3-27.8-3.1c-8.7-0.1-17.5,1.7-26.2,2.7
		c-1.5,0.2-3,1-4.4,0.7c-1.6-0.3-3-1.5-4.5-2.3c1-1.3,1.8-3,3.2-3.8c1.3-0.9,3.2-0.9,4.8-1.3c18.4-4.3,36.7-2.6,55,0.2
		c15.5,2.4,31,4.5,46.5,6.7c1.3,0.2,2.9,0.2,3.9,0.9c1.3,0.9,2.2,2.4,3.3,3.7C321.7,246.9,320.3,248,319.7,248.6z"/>
	<path style="fill:#A0A0A0;" d="M241.6,207.1c10.5,1.3,22.7,2.8,34.9,4.5c13,1.8,26,3.7,39,5.6c1.3,0.2,2.9,0.1,3.9,0.8
		c1.4,1,2.4,2.6,3.6,3.9c-1.6,0.8-3.3,2.4-4.8,2.3c-7-0.7-13.9-1.8-20.8-2.8c-18-2.4-35.9-5.5-54-7c-9.1-0.7-18.5,1.6-27.7,2.5
		c-1.6,0.2-3.4,1.1-4.9,0.8c-1.6-0.3-2.9-1.6-4.4-2.5c1.1-1.3,1.9-3.4,3.3-3.7c5-1.4,10.1-2.4,15.2-3.1
		C229.9,207.8,234.9,207.6,241.6,207.1z"/>
	<path style="fill:#A0A0A0;" d="M239.3,178.8c13,1.7,25.1,3.1,37.1,4.8c13.2,1.8,26.4,3.8,39.5,5.7c1.5,0.2,3.1,0.3,4.3,1
		c1.2,0.8,1.9,2.3,2.8,3.5c-1.4,0.9-2.8,2.6-4.2,2.5c-4.3-0.2-8.6-1-12.9-1.6c-20.6-2.8-41.2-6.3-61.9-8.2
		c-9.3-0.8-18.8,1.5-28.2,2.4c-1.6,0.2-3.3,1.1-4.9,0.8c-1.6-0.3-3-1.5-4.5-2.3c1-1.3,2-2.7,3.1-3.9c0.4-0.4,1.2-0.4,1.9-0.5
		C221.1,181.5,230.6,180.1,239.3,178.8z"/>
	<path style="fill:#A0A0A0;" d="M239.3,159.6c-7.4,1-14.8,2.1-22.2,3.1c-1.1,0.2-2.3,0.6-3.4,0.8c-2.6,0.5-6,1.4-6.9-1.9
		c-1-3.7,2.6-4,5.1-4.6c16.9-4.2,33.9-4,51-1.3c17.6,2.8,35.3,5.1,52.9,7.6c1.5,0.2,3.2,0.2,4.3,1c1.3,0.9,2,2.6,2.9,3.9
		c-1.5,0.8-3.1,2.3-4.5,2.2c-7.1-0.7-14.2-1.9-21.3-2.9c-18-2.4-36-4.9-53.9-7.2c-1.3-0.2-2.7,0-4,0
		C239.3,159.9,239.3,159.7,239.3,159.6z"/>
	<path style="fill:#A0A0A0;" d="M319.7,144.6c-17.7-2.5-34-4.9-50.3-7.1c-8.9-1.2-17.8-3.1-26.7-3.1c-9.4,0-18.8,1.8-28.2,3
		c-2.9,0.4-6.8,2-7.7-1.9c-0.9-4.1,3.5-4.1,6.2-4.8c16.4-3.9,32.9-3.7,49.6-1.1c17.8,2.8,35.6,5.1,53.4,7.7c1.3,0.2,2.8,0.2,3.9,0.8
		c1.3,0.9,2.2,2.4,3.3,3.7C321.7,142.9,320.4,144,319.7,144.6z"/>
	<path style="fill:#A0A0A0;" d="M239.3,105.4c-8.4,1.3-16.7,2.6-25.1,3.9c-2.9,0.5-6.7,1.9-7.5-2.2c-0.7-3.8,3.4-3.9,6-4.5
		c16.6-4,33.3-3.8,50.1-1.1c17.6,2.8,35.3,5.1,52.9,7.6c1.5,0.2,3.2,0.2,4.3,1c1.3,0.9,2,2.5,3,3.8c-1.5,0.8-3,2.4-4.4,2.3
		c-7.1-0.7-14.2-1.9-21.3-2.9c-18-2.4-36-4.9-53.9-7.2c-1.3-0.2-2.7,0-4,0C239.4,105.9,239.4,105.7,239.3,105.4z"/>
	<path style="fill:#A0A0A0;" d="M239.3,79.6c-7.4,1-14.8,2.1-22.2,3.1c-0.8,0.1-1.6,0.4-2.4,0.5c-3,0.5-7.1,2.3-7.9-2.1
		c-0.7-4,3.8-3.9,6.5-4.5c16.4-3.9,32.9-3.6,49.6-1c17.6,2.8,35.3,5.1,52.9,7.6c1.5,0.2,3.2,0.2,4.3,1c1.3,0.9,2,2.5,3,3.9
		c-1.5,0.8-3,2.4-4.4,2.2c-7.1-0.7-14.2-1.9-21.3-2.9c-18-2.4-36-4.9-53.9-7.2c-1.3-0.2-2.7,0-4,0C239.4,79.9,239.3,79.7,239.3,79.6
		z"/>
	<g>
		<path style="fill:#A0A0A0;" d="M132.7,73.1c6.8,1,15.5,2.2,24.2,3.5c1,0.1,2.2,0.2,2.9,0.8c1.3,1.1,2.2,2.5,3.3,3.8
			c-1.6,0.9-3.2,2.5-4.8,2.5c-3.1-0.1-6.2-1.1-9.3-1.7c-13.4-2.6-26.8-1.8-40.2,0.2C90,85,71.2,87.5,52.4,90.1
			c-1.1,0.2-2.5,0.5-3.4,0.1c-1.1-0.5-2.2-1.7-2.4-2.8c-0.2-0.8,0.8-2.3,1.6-2.7c1.6-0.8,3.4-1.2,5.2-1.5
			c20.1-2.9,40.2-5.8,60.3-8.6C119.4,73.9,125.1,73.7,132.7,73.1z"/>
	</g>
	<path style="fill:#A0A0A0;" d="M158.6,109.5c-6.6-0.9-13.2-1.7-19.7-2.8c-10.2-1.7-20.3,0.2-30.3,1.5c-18.8,2.5-37.6,5.2-56.4,7.8
		c-0.8,0.1-1.8,0.6-2.4,0.2c-1.2-0.7-2.6-1.6-3.1-2.7c-0.3-0.7,0.9-2.4,1.8-3c1-0.7,2.5-1,3.8-1.2c21.1-3,42.1-6.3,63.3-8.9
		c13.8-1.7,27.6-1.2,41.1,2.1c1,0.2,2.2,0.2,2.9,0.8c1.3,1.2,2.4,2.7,3.5,4.1c-1.3,1-2.7,2-4,3C158.9,110.2,158.8,109.9,158.6,109.5
		z"/>
	<path style="fill:#A0A0A0;" d="M130.5,133.6c-12.6,1.6-24.8,3.1-37,4.8c-13.7,1.8-27.4,3.8-41,5.8c-2.5,0.4-5.1,0.7-5.7-2.3
		c-0.7-3.5,2.5-4,4.8-4.4c10-1.6,20.1-3,30.2-4.3c14.8-1.9,29.7-4.1,44.6-5.4c11.3-1,22.6,0.5,33.5,3.7c1.3,0.4,2.2,2.4,3.3,3.7
		c-1.4,0.9-2.8,2.2-4.3,2.5c-1.5,0.3-3.2-0.5-4.9-0.8C146,135.8,138.1,134.7,130.5,133.6z"/>
	<path style="fill:#A0A0A0;" d="M158.4,163.5c-6.6-0.9-13.2-1.6-19.7-2.7c-10.1-1.7-19.9,0.2-29.8,1.5c-18.8,2.5-37.6,5.2-56.4,7.8
		c-1.1,0.2-2.5,0.5-3.4,0.1c-1.1-0.5-2.2-1.7-2.5-2.7c-0.2-0.7,0.7-2.3,1.6-2.7c1.6-0.8,3.4-1.3,5.2-1.5c20.3-2.9,40.5-6,60.8-8.6
		c14.6-1.9,29.2-1.5,43.6,2.3c0.6,0.2,1.5,0.1,1.9,0.5c1.2,1.2,2.3,2.5,3.4,3.7c-1.4,1.1-2.8,2.3-4.1,3.4
		C158.8,164.2,158.6,163.9,158.4,163.5z"/>
	<path style="fill:#A0A0A0;" d="M159.5,190.2c-4-0.9-7.1-1.6-10.2-2.2c-13.6-2.6-27.1-1.8-40.7,0.2c-18.8,2.8-37.6,5.3-56.4,7.9
		c-1,0.1-2.2,0.5-2.9,0.1c-1.1-0.5-2.4-1.6-2.6-2.6c-0.2-0.9,0.8-2.4,1.7-3.1c1-0.8,2.4-1,3.7-1.2c21.1-3,42.1-6.3,63.3-8.9
		c13.9-1.7,27.9-1.2,41.6,2.3c1,0.2,2.2,0.2,2.8,0.8c1.2,1.1,2.1,2.6,3.1,3.9C161.7,188.4,160.4,189.5,159.5,190.2z"/>
	<path style="fill:#A0A0A0;" d="M159.7,218.1c-2-0.3-3-0.4-3.9-0.7c-15.6-4-31.3-3.6-47.1-1.2c-18.8,2.9-37.6,5.3-56.4,8
		c-0.8,0.1-1.8,0.6-2.4,0.3c-1.2-0.6-2.9-1.5-3.1-2.6c-0.2-0.9,1-3,2-3.3c3.5-1,7.1-1.6,10.7-2.2c18.3-2.7,36.6-5.4,54.9-7.8
		c14.4-1.8,28.9-1.5,43.1,2.2c0.8,0.2,1.8,0.2,2.4,0.7c1.2,1.1,2.2,2.5,3.2,3.8C161.8,216.4,160.5,217.4,159.7,218.1z"/>
	<path style="fill:#A0A0A0;" d="M159.7,246.1c-2-0.3-3-0.4-3.9-0.7c-15.6-4-31.3-3.6-47.1-1.2c-18.8,2.9-37.6,5.3-56.4,8
		c-0.8,0.1-1.8,0.6-2.4,0.3c-1.2-0.6-2.9-1.5-3.2-2.6c-0.2-0.9,1-3,2-3.3c3.5-1,7.1-1.6,10.7-2.2c18.3-2.7,36.6-5.4,54.9-7.8
		c14.4-1.8,28.9-1.5,43.1,2.2c0.8,0.2,1.8,0.2,2.4,0.7c1.2,1.1,2.2,2.5,3.3,3.8C161.8,244.4,160.5,245.4,159.7,246.1z"/>
</g>
</svg>
